<svg width="100" height="90" viewBox="0 0 100 90" fill="none" xmlns="http://www.w3.org/2000/svg">
<rect width="99.68" height="90.0023" rx="22" fill="#F37168"/>
<path d="M54.7538 56.2145C54.9161 55.8368 55.0063 55.4211 55.0063 54.9847C55.0063 53.2613 53.6043 51.8592 51.8809 51.8592H50.5504H47.4013L48.8936 49.3487C49.3329 48.6098 49.4446 47.7134 49.2003 46.8893C48.9559 46.0653 48.3734 45.3747 47.6026 44.9949C46.7351 44.5674 45.702 44.5731 44.8391 45.0098C42.3665 46.2616 40.1165 47.9729 38.2371 50.0156C38.0699 49.7174 37.7513 49.5155 37.3851 49.5155H28.7913C28.252 49.5155 27.8147 49.9528 27.8147 50.492V55.8631C27.8147 56.4024 28.252 56.8397 28.7913 56.8397C29.3306 56.8397 29.7679 56.4024 29.7679 55.8631V51.4686H36.4085V69.0467H29.7679V64.6522C29.7679 64.1129 29.3306 63.6756 28.7913 63.6756C28.252 63.6756 27.8147 64.1129 27.8147 64.6522V70.0233C27.8147 70.5625 28.252 70.9998 28.7913 70.9998H37.3851C37.9243 70.9998 38.3616 70.5625 38.3616 70.0233V69.9882C39.5231 70.6414 40.8462 70.9998 42.1897 70.9998H51.2034C52.9258 70.9998 54.3269 69.5986 54.3269 67.8763C54.3269 67.4625 54.2453 67.0677 54.0985 66.706H54.1594C55.8828 66.706 57.285 65.3039 57.285 63.5805C57.285 62.7486 56.9576 61.9922 56.4258 61.4316C56.9576 60.8709 57.285 60.1145 57.285 59.2825C57.2849 57.7624 56.1938 56.4929 54.7538 56.2145V56.2145ZM54.1593 64.7528H47.7871C47.2478 64.7528 46.8105 65.1901 46.8105 65.7293C46.8105 66.2686 47.2478 66.7059 47.7871 66.7059H51.2032C51.8485 66.7059 52.3735 67.2309 52.3735 67.8762C52.3735 68.5215 51.8486 69.0467 51.2033 69.0467H42.1896C40.7886 69.0467 39.4169 68.5281 38.3615 67.6143V52.9094L38.4282 52.8219C40.3587 50.2893 42.8806 48.1905 45.7214 46.7524C46.0391 46.5914 46.4194 46.5893 46.7393 46.7469C47.0274 46.8888 47.2364 47.1366 47.3277 47.4447C47.4191 47.7527 47.3789 48.0743 47.2148 48.3505L44.8452 52.3367C44.6657 52.6385 44.6622 53.0134 44.8357 53.3186C45.0094 53.6238 45.3335 53.8123 45.6846 53.8123H51.8808C52.5271 53.8123 53.0531 54.3383 53.0531 54.9847C53.0531 55.6311 52.5271 56.1571 51.8808 56.1571H47.7871C47.2478 56.1571 46.8105 56.5944 46.8105 57.1336C46.8105 57.6729 47.2478 58.1102 47.7871 58.1102H54.1593C54.8058 58.1102 55.3317 58.6362 55.3317 59.2825C55.3317 59.929 54.8058 60.455 54.1593 60.455H47.7871C47.2478 60.455 46.8105 60.8923 46.8105 61.4316C46.8105 61.9708 47.2478 62.4081 47.7871 62.4081H54.1593C54.8058 62.4081 55.3317 62.9341 55.3317 63.5805C55.3317 64.2269 54.8059 64.7528 54.1593 64.7528V64.7528Z" fill="white"/>
<path d="M59.7544 33.0837L55.5645 32.475L53.6907 28.6781C53.5261 28.3448 53.1867 28.1338 52.8149 28.1338C52.4431 28.1338 52.1037 28.3448 51.9391 28.6781L50.0653 32.475L45.8753 33.0837C45.5074 33.1372 45.2019 33.3949 45.087 33.7484C44.9721 34.102 45.0679 34.49 45.334 34.7495L48.366 37.7049L47.6502 41.8779C47.5873 42.2443 47.738 42.6145 48.0388 42.833C48.3396 43.0515 48.7383 43.0802 49.0672 42.9074L52.8149 40.9371L56.5625 42.9074C56.7054 42.9826 56.8615 43.0195 57.0168 43.0195C57.2193 43.0195 57.4208 42.9565 57.591 42.833C57.8916 42.6145 58.0423 42.2443 57.9795 41.8779L57.2638 37.7049L60.2957 34.7495C60.5619 34.49 60.6577 34.102 60.5428 33.7484C60.428 33.3949 60.1224 33.1372 59.7544 33.0837V33.0837ZM55.5328 36.6646C55.3028 36.889 55.1977 37.2121 55.252 37.529L55.7201 40.2578L53.2694 38.9694C53.1272 38.8946 52.971 38.8573 52.815 38.8573C52.6589 38.8573 52.5028 38.8947 52.3606 38.9694L49.9099 40.2578L50.378 37.529C50.4323 37.2122 50.3272 36.889 50.0971 36.6646L48.1145 34.732L50.8543 34.334C51.1725 34.2877 51.4474 34.0879 51.5897 33.7997L52.815 31.3169L54.0403 33.7997C54.1826 34.0879 54.4575 34.2877 54.7756 34.334L57.5155 34.732L55.5328 36.6646Z" fill="white"/>
<path d="M74.1373 35.4154C74.0224 35.0619 73.7168 34.8042 73.3489 34.7507L70.1389 34.2844L68.7033 31.3754C68.5388 31.0421 68.1993 30.8311 67.8276 30.8311C67.4558 30.8311 67.1163 31.0421 66.9518 31.3754L65.5162 34.2844L62.3062 34.7507C61.9382 34.8042 61.6327 35.0619 61.5178 35.4154C61.4029 35.7689 61.4987 36.157 61.7649 36.4165L64.0877 38.6808L63.5394 41.8778C63.4765 42.2442 63.6272 42.6145 63.928 42.8329C64.2287 43.0516 64.6275 43.0801 64.9564 42.9073L67.8276 41.3979L70.6988 42.9073C70.8416 42.9824 70.9977 43.0194 71.153 43.0194C71.3555 43.0194 71.5571 42.9564 71.7272 42.8329C72.0279 42.6145 72.1785 42.2442 72.1157 41.8778L71.5674 38.6808L73.8903 36.4165C74.1564 36.157 74.2521 35.7689 74.1373 35.4154ZM69.8363 37.6404C69.6063 37.8648 69.5012 38.188 69.5555 38.5049L69.8562 40.2577L68.282 39.4301C68.1397 39.3553 67.9836 39.318 67.8276 39.318C67.6715 39.318 67.5155 39.3554 67.3732 39.4301L65.7989 40.2577L66.0996 38.5049C66.1539 38.1881 66.0488 37.8648 65.8188 37.6404L64.5451 36.399L66.3051 36.1434C66.6233 36.0971 66.8982 35.8973 67.0404 35.6091L67.8276 34.0142L68.6147 35.6091C68.757 35.8973 69.0319 36.0971 69.35 36.1434L71.11 36.399L69.8363 37.6404Z" fill="white"/>
<path d="M34.0618 38.6808L33.5134 41.8778C33.4505 42.2442 33.6012 42.6145 33.902 42.8329C34.2028 43.0516 34.6014 43.0801 34.9304 42.9073L37.8016 41.3979L40.6728 42.9073C40.8157 42.9824 40.9717 43.0194 41.1271 43.0194C41.3295 43.0194 41.5311 42.9564 41.7012 42.8329C42.0019 42.6145 42.1526 42.2442 42.0898 41.8778L41.5414 38.6808L43.8643 36.4165C44.1305 36.157 44.2262 35.7689 44.1114 35.4154C43.9964 35.0619 43.6909 34.8042 43.323 34.7507L40.1129 34.2844L38.6774 31.3754C38.5128 31.0421 38.1734 30.8311 37.8016 30.8311C37.4298 30.8311 37.0904 31.0421 36.9258 31.3754L35.4903 34.2844L32.2802 34.7507C31.9122 34.8042 31.6068 35.0619 31.4918 35.4154C31.377 35.7689 31.4728 36.157 31.7389 36.4165L34.0618 38.6808ZM36.2791 36.1434C36.5973 36.0971 36.8722 35.8973 37.0145 35.6091L37.8016 34.0142L38.5887 35.6091C38.731 35.8973 39.0059 36.0971 39.3241 36.1434L41.084 36.399L39.8104 37.6404C39.5803 37.8648 39.4752 38.188 39.5295 38.5049L39.8302 40.2577L38.256 39.4301C38.1137 39.3553 37.9577 39.318 37.8016 39.318C37.6455 39.318 37.4895 39.3554 37.3472 39.4301L35.773 40.2577L36.0737 38.5049C36.128 38.1881 36.0229 37.8648 35.7928 37.6404L34.5192 36.399L36.2791 36.1434Z" fill="white"/>
<path d="M52.8047 25.8358C53.344 25.8358 53.7813 25.3985 53.7813 24.8593V21.9766C53.7813 21.4373 53.344 21 52.8047 21C52.2655 21 51.8282 21.4373 51.8282 21.9766V24.8593C51.8282 25.3985 52.2655 25.8358 52.8047 25.8358Z" fill="white"/>
<path d="M45.601 27.9407C45.7918 28.1313 46.0417 28.2268 46.2916 28.2268C46.5415 28.2268 46.7914 28.1313 46.9821 27.9407C47.3634 27.5594 47.3634 26.941 46.9821 26.5596L45.2905 24.868C44.909 24.4867 44.2909 24.4867 43.9093 24.868C43.528 25.2493 43.528 25.8677 43.9093 26.2491L45.601 27.9407Z" fill="white"/>
<path d="M59.3385 28.2267C59.5884 28.2267 59.8383 28.1313 60.029 27.9407L61.7207 26.2491C62.1021 25.8677 62.1021 25.2495 61.7207 24.8679C61.3394 24.4868 60.7212 24.4867 60.3396 24.8679L58.6479 26.5596C58.2665 26.941 58.2665 27.5592 58.6479 27.9408C58.8387 28.1313 59.0885 28.2267 59.3385 28.2267V28.2267Z" fill="white"/>
<path d="M29.4818 60.9481C29.6635 60.7666 29.768 60.5146 29.768 60.2578C29.768 60.001 29.6636 59.749 29.4818 59.5674C29.2992 59.3857 29.0482 59.2812 28.7914 59.2812C28.5346 59.2812 28.2826 59.3856 28.1 59.5674C27.9185 59.749 27.8148 60.001 27.8148 60.2578C27.8148 60.5146 27.9185 60.7666 28.1 60.9481C28.2826 61.1298 28.5336 61.2344 28.7914 61.2344C29.0482 61.2344 29.3002 61.1299 29.4818 60.9481Z" fill="white"/>
</svg>
