<svg width="31" height="31" viewBox="0 0 31 31" fill="none" xmlns="http://www.w3.org/2000/svg">
<circle cx="15.5331" cy="15.4667" r="15.4667" fill="#0077B5"/>
<path fill-rule="evenodd" clip-rule="evenodd" d="M11.9525 8.55367C11.9525 9.4245 11.2894 10.1292 10.2525 10.1292C9.25598 10.1292 8.59292 9.4245 8.61344 8.55367C8.59292 7.64052 9.25597 6.9563 10.2724 6.9563C11.2894 6.9563 11.9326 7.64052 11.9525 8.55367ZM8.69681 21.5173V11.3739H11.8492V21.5167H8.69681V21.5173Z" fill="white"/>
<path fill-rule="evenodd" clip-rule="evenodd" d="M14.376 14.6111C14.376 13.3459 14.3343 12.2673 14.2926 11.3753H17.0308L17.1763 12.765H17.2385C17.6534 12.1218 18.6904 11.1477 20.3705 11.1477C22.4443 11.1477 24 12.5168 24 15.5025V21.5188H20.8475V15.8975C20.8475 14.59 20.3916 13.6986 19.2508 13.6986C18.3793 13.6986 17.8612 14.3001 17.6541 14.8805C17.5707 15.0882 17.5297 15.3781 17.5297 15.6692V21.5188H14.3772V14.6111H14.376Z" fill="white"/>
</svg>
