<svg width="100" height="90" viewBox="0 0 100 90" fill="none" xmlns="http://www.w3.org/2000/svg">
<rect width="99.6774" height="90" rx="15" fill="#79E28A"/>
<g clip-path="url(#clip0_16_71)">
<path d="M49.0345 13.9719C42.3367 20.682 38.5902 30.0718 38.7548 39.7366L38.7548 43.1146L35.1634 43.1146L31.3589 49.9115L31.3588 58.3591L38.7545 58.3592L38.7545 58.3594L39.1369 58.3593L40.9859 63.6871L43.2789 63.6871L43.279 69.2958L45.9285 69.2958L45.9285 63.6872L48.6411 63.6873L48.641 75.5647L51.2905 75.5647L51.2905 63.6872L54.003 63.6872L54.003 69.2961L56.6525 69.2961L56.6525 63.6872L58.9456 63.6873L60.7947 58.3594L68.5728 58.3594L68.573 49.9127L64.778 43.1149L61.1771 43.1151L61.1771 39.7371C61.2617 35.1369 60.4191 30.4114 58.7401 26.071C55.5518 17.8283 50.5149 13.6876 49.9721 13.0325L49.0345 13.9719ZM34.0083 50.6027L36.7167 45.7643L38.7546 45.7642L38.7545 55.7098L34.0083 55.7097L34.0083 50.6027ZM57.0606 61.0378L42.8709 61.0377L41.9416 58.3594L57.9902 58.3594L57.0606 61.0378ZM63.2228 45.7646L65.9235 50.6022L65.9234 55.71L61.1772 55.71L61.1772 45.7648L63.2228 45.7646ZM58.5278 39.7L58.5278 43.1152L58.5275 43.1152L58.5275 55.7096L41.4042 55.7097C41.4042 54.4473 41.4043 44.3329 41.4043 43.1146C41.4043 42.7204 41.4044 44.4541 41.4041 39.7019C41.257 31.2096 44.3658 22.9496 49.9722 16.8245C55.5829 22.9535 58.6871 31.2126 58.5278 39.7Z" fill="white"/>
<path d="M56.0069 37.1059C56.0069 33.7723 53.2975 31.0602 49.9673 31.0602C48.3567 31.0602 46.8411 31.6887 45.6999 32.83C43.3439 35.1859 43.3272 38.9996 45.698 41.3694C46.8401 42.5108 48.3563 43.1395 49.9674 43.1394C53.2658 43.1393 56.007 40.4542 56.0069 37.1059V37.1059ZM47.5734 34.7035C48.2142 34.0626 49.0644 33.7097 49.9673 33.7097C51.8366 33.7098 53.3574 35.2333 53.3574 37.1059C53.3574 38.0027 53.0041 38.8499 52.3626 39.4914C51.022 40.8319 48.8904 40.8139 47.571 39.4953C46.9301 38.8547 46.2612 36.0157 47.5734 34.7035V34.7035Z" fill="white"/>
</g>
<defs>
<clipPath id="clip0_16_71">
<rect width="45.2123" height="45.2123" fill="white" transform="translate(17.9995 45) rotate(-45)"/>
</clipPath>
</defs>
</svg>
