<svg width="41" height="41" viewBox="0 0 41 41" fill="none" xmlns="http://www.w3.org/2000/svg">
<g clip-path="url(#clip0_16_141)">
<path d="M15.0655 0.705176H4.27637C2.23764 0.705176 0.579977 2.36283 0.579977 4.40157V15.1907C0.579977 17.2293 2.23763 18.8871 4.27637 18.8871H15.0655C17.1041 18.8871 18.7619 17.2294 18.7619 15.1907V4.40157C18.7618 2.36283 17.1041 0.705176 15.0655 0.705176ZM16.7636 15.1907C16.7636 16.1267 16.0015 16.8888 15.0655 16.8888H4.27637C3.34035 16.8888 2.57822 16.1267 2.57822 15.1907V4.40157C2.57822 3.46555 3.34035 2.70342 4.27637 2.70342H15.0655C16.0015 2.70342 16.7636 3.46555 16.7636 4.40157V15.1907Z" fill="#3D3D3F" stroke="#3D3D3F" stroke-width="0.2"/>
<path d="M36.2255 0.705176H25.4364C23.3976 0.705176 21.74 2.36283 21.74 4.40157V15.1907C21.74 17.2293 23.3976 18.8871 25.4364 18.8871H36.2255C38.2641 18.8871 39.9219 17.2294 39.9219 15.1907V4.40157C39.9218 2.36283 38.2641 0.705176 36.2255 0.705176ZM37.9236 15.1907C37.9236 16.1267 37.1615 16.8888 36.2255 16.8888H25.4364C24.5004 16.8888 23.7382 16.1267 23.7382 15.1907V4.40157C23.7382 3.46555 24.5004 2.70342 25.4364 2.70342H36.2255C37.1615 2.70342 37.9236 3.46555 37.9236 4.40157V15.1907Z" fill="#3D3D3F" stroke="#3D3D3F" stroke-width="0.2"/>
<path d="M15.0655 22.2833H4.27637C2.23764 22.2833 0.579977 23.941 0.579977 25.9797V36.7688C0.579977 38.8074 2.23763 40.4652 4.27637 40.4652H15.0655C17.1041 40.4652 18.7619 38.8075 18.7619 36.7688V25.9797C18.7618 23.941 17.1041 22.2833 15.0655 22.2833ZM16.7636 36.7688C16.7636 37.7048 16.0015 38.4669 15.0655 38.4669H4.27637C3.34035 38.4669 2.57822 37.7048 2.57822 36.7688V25.9797C2.57822 25.0437 3.34035 24.2815 4.27637 24.2815H15.0655C16.0015 24.2815 16.7636 25.0437 16.7636 25.9797V36.7688Z" fill="#3D3D3F" stroke="#3D3D3F" stroke-width="0.2"/>
<path d="M36.2255 22.2833H25.4364C23.3976 22.2833 21.74 23.941 21.74 25.9797V36.7688C21.74 38.8074 23.3976 40.4652 25.4364 40.4652H36.2255C38.2641 40.4652 39.9219 38.8075 39.9219 36.7688V25.9797C39.9218 23.941 38.2641 22.2833 36.2255 22.2833ZM37.9236 36.7688C37.9236 37.7048 37.1615 38.4669 36.2255 38.4669H25.4364C24.5004 38.4669 23.7382 37.7048 23.7382 36.7688V25.9797C23.7382 25.0437 24.5004 24.2815 25.4364 24.2815H36.2255C37.1615 24.2815 37.9236 25.0437 37.9236 25.9797V36.7688Z" fill="#3D3D3F" stroke="#3D3D3F" stroke-width="0.2"/>
</g>
<defs>
<clipPath id="clip0_16_141">
<rect x="0.679977" y="0.805176" width="39.56" height="39.56" rx="3" fill="white"/>
</clipPath>
</defs>
</svg>
