<svg width="50" height="51" viewBox="0 0 50 51" fill="none" xmlns="http://www.w3.org/2000/svg">
<g clip-path="url(#clip0_16_126)">
<path d="M45.6055 0.222656H4.39453C1.97139 0.222656 0 2.19404 0 4.61719V45.6328C0 48.056 1.97139 50.0273 4.39453 50.0273H45.6055C48.0286 50.0273 50 48.056 50 45.6328V4.61719C50 2.19404 48.0286 0.222656 45.6055 0.222656ZM4.39453 3.15234H45.6055C46.4132 3.15234 47.0703 3.80947 47.0703 4.61719V11.9414H2.92969V4.61719C2.92969 3.80947 3.58682 3.15234 4.39453 3.15234ZM45.6055 47.0977H4.39453C3.58682 47.0977 2.92969 46.4405 2.92969 45.6328V14.8711H47.0703V45.6328C47.0703 46.4405 46.4132 47.0977 45.6055 47.0977Z" fill="white"/>
<path d="M29.9716 19.3839C29.2281 19.0653 28.3669 19.4097 28.0482 20.1533L19.2591 40.6611C18.9404 41.4046 19.2849 42.2659 20.0285 42.5845C20.7723 42.9033 21.6334 42.5585 21.9519 41.8152L30.741 21.3074C31.0597 20.5637 30.7152 19.7026 29.9716 19.3839V19.3839Z" fill="white"/>
<path d="M17.3547 24.2099C16.8492 23.5782 15.9272 23.4759 15.2958 23.9812L7.97158 29.8406C7.23925 30.4262 7.23876 31.5422 7.97158 32.1283L15.2958 37.9877C15.9275 38.4931 16.8495 38.3906 17.3547 37.7589C17.8601 37.1272 17.7577 36.2053 17.1259 35.7001L11.2315 30.9844L17.1259 26.2689C17.7577 25.7635 17.8601 24.8418 17.3547 24.2099V24.2099Z" fill="white"/>
<path d="M42.0286 29.8406L34.7043 23.9813C34.0726 23.4758 33.1507 23.5782 32.6455 24.21C32.1401 24.8417 32.2424 25.7636 32.8743 26.2689L38.7686 30.9845L32.8743 35.7C32.2424 36.2054 32.1401 37.1272 32.6455 37.7589C33.1515 38.3913 34.0735 38.4925 34.7043 37.9876L42.0286 32.1282C42.7609 31.5426 42.7614 30.4268 42.0286 29.8406Z" fill="white"/>
<path d="M7.42188 9.01172C8.23089 9.01172 8.88672 8.35589 8.88672 7.54688C8.88672 6.73786 8.23089 6.08203 7.42188 6.08203C6.61286 6.08203 5.95703 6.73786 5.95703 7.54688C5.95703 8.35589 6.61286 9.01172 7.42188 9.01172Z" fill="white"/>
<path d="M13.2812 9.01172C14.0903 9.01172 14.7461 8.35589 14.7461 7.54688C14.7461 6.73786 14.0903 6.08203 13.2812 6.08203C12.4722 6.08203 11.8164 6.73786 11.8164 7.54688C11.8164 8.35589 12.4722 9.01172 13.2812 9.01172Z" fill="white"/>
<path d="M19.1406 9.01172C19.9496 9.01172 20.6055 8.35589 20.6055 7.54688C20.6055 6.73786 19.9496 6.08203 19.1406 6.08203C18.3316 6.08203 17.6758 6.73786 17.6758 7.54688C17.6758 8.35589 18.3316 9.01172 19.1406 9.01172Z" fill="white"/>
<path d="M33.7891 9.01172H42.5781C43.3871 9.01172 44.043 8.35586 44.043 7.54688C44.043 6.73789 43.3871 6.08203 42.5781 6.08203H33.7891C32.9801 6.08203 32.3242 6.73789 32.3242 7.54688C32.3242 8.35586 32.9801 9.01172 33.7891 9.01172Z" fill="white"/>
</g>
<defs>
<clipPath id="clip0_16_126">
<rect width="50" height="50" fill="white" transform="translate(0 0.125)"/>
</clipPath>
</defs>
</svg>
