<svg width="50" height="51" viewBox="0 0 50 51" fill="none" xmlns="http://www.w3.org/2000/svg">
<g clip-path="url(#clip0_16_117)">
<path d="M43.6691 6.62719H43.0759C44.2067 4.78611 43.7891 2.31438 41.9742 0.967824C40.0187 -0.482928 37.2397 -0.0159454 35.875 2.02347L32.7944 6.62728H6.33038C4.15513 6.62728 2.38544 8.39698 2.38544 10.5722V35.7938C2.38544 37.9691 4.15513 39.7387 6.33038 39.7387H21.6537L20.4959 44.6016H17.997C16.3685 44.6016 15.0435 45.9265 15.0435 47.5551V48.1718H11.963C11.4236 48.1718 10.9864 48.6091 10.9864 49.1483C10.9864 49.6876 11.4236 50.1249 11.963 50.1249H38.0366C38.5759 50.1249 39.0131 49.6876 39.0131 49.1483C39.0131 48.6091 38.5759 48.1718 38.0366 48.1718H34.9561V47.5551C34.9561 45.9265 33.6311 44.6016 32.0025 44.6016H29.5037L28.3459 39.7387H43.6692C45.8445 39.7387 47.6141 37.9691 47.6141 35.7938V30.2441V10.5721C47.6141 8.39688 45.8445 6.62719 43.6691 6.62719V6.62719ZM29.677 23.7947C28.1502 24.8635 25.2898 23.4107 22.5582 24.8683C21.8917 21.406 22.3119 18.1497 25.7811 17.431C26.2294 17.3375 26.7121 17.2952 27.123 17.3034C28.2972 18.1746 29.4849 19.0557 30.6558 19.9246C31.1684 21.4156 30.976 22.8855 29.677 23.7947ZM30.6612 13.3273L33.4255 15.3783L31.2996 17.9701C30.4244 17.3208 29.6721 16.7626 28.7969 16.1132C28.9787 15.8417 30.495 13.5755 30.6612 13.3273V13.3273ZM37.4983 3.10968C38.238 2.00413 39.7464 1.74691 40.8105 2.53645C41.8749 3.32608 42.0655 4.84421 41.2221 5.87261C39.7255 7.69709 36.1676 12.035 34.6654 13.8665L31.7484 11.7023L37.4983 3.10968ZM33.0029 47.5551V48.1718H16.9966V47.5551C16.9966 47.0035 17.4454 46.5547 17.997 46.5547H32.0024C32.5541 46.5547 33.0029 47.0035 33.0029 47.5551ZM27.4959 44.6016H22.5036L23.6614 39.7387H26.3381L27.4959 44.6016ZM45.6611 35.7938C45.6611 36.8921 44.7675 37.7857 43.6692 37.7857C42.119 37.7857 8.07341 37.7857 6.33048 37.7857C5.23216 37.7857 4.33862 36.8921 4.33862 35.7938V31.2206H7.12919C7.66854 31.2206 8.10574 30.7834 8.10574 30.2441C8.10574 29.7049 7.66854 29.2676 7.12919 29.2676H4.33843V10.5721C4.33843 9.47381 5.23196 8.58027 6.33028 8.58027H31.4875C30.552 9.97839 27.8226 14.0572 26.9581 15.3491C25.0444 15.3664 23.1338 16.0331 21.883 17.4932C20.181 19.48 19.882 22.6018 20.9943 26.7718C21.1844 27.4849 22.0741 27.7403 22.6125 27.2261C25.1375 24.8134 28.2824 27.4451 31.0987 25.1657C32.8178 23.7741 33.2246 21.5619 32.5764 19.4931C33.4526 18.4248 40.6489 9.65115 41.5272 8.58027H43.669C44.7673 8.58027 45.6609 9.47381 45.6609 10.5721V29.2675H14.9413C14.402 29.2675 13.9648 29.7048 13.9648 30.244C13.9648 30.7833 14.402 31.2205 14.9413 31.2205H45.6611V35.7938Z" fill="#3D3D3F"/>
<path d="M10.8463 29.2862C10.3761 29.3823 10.0611 29.7886 10.0611 30.2443C10.0611 30.8551 10.6196 31.3229 11.2281 31.2013C11.7688 31.0916 12.0982 30.5705 11.9947 30.0529C11.886 29.5187 11.3678 29.1812 10.8463 29.2862V29.2862Z" fill="#3D3D3F"/>
</g>
<defs>
<clipPath id="clip0_16_117">
<rect width="50" height="50" fill="white" transform="translate(0 0.125)"/>
</clipPath>
</defs>
</svg>
